<?xml version="1.0" standalone="no"?>
<!DOCTYPE svg PUBLIC "-//W3C//DTD SVG 20010904//EN"
 "http://www.w3.org/TR/2001/REC-SVG-20010904/DTD/svg10.dtd">
<svg version="1.0" xmlns="http://www.w3.org/2000/svg"
 width="788.000000pt" height="418.000000pt" viewBox="0 0 788.000000 418.000000"
 preserveAspectRatio="xMidYMid meet">

<g transform="translate(0.000000,418.000000) scale(0.100000,-0.100000)"
fill="#000000" stroke="none">
<path d="M5070 2145 l0 -1745 185 0 185 0 0 1745 0 1745 -185 0 -185 0 0
-1745z"/>
<path d="M690 3260 l0 -430 -205 0 -205 0 0 -85 0 -85 205 0 204 0 3 -962 3
-963 24 -70 c30 -89 63 -146 109 -186 44 -39 138 -83 210 -98 66 -14 295 -14
382 -1 121 19 110 7 110 118 l0 97 -162 0 c-154 0 -165 1 -206 24 -50 29 -64
49 -88 122 -17 50 -18 123 -22 987 l-3 932 240 0 241 0 0 85 0 85 -240 0 -240
0 0 430 0 430 -180 0 -180 0 0 -430z"/>
<path d="M2190 2865 c-244 -49 -375 -143 -469 -335 -93 -191 -110 -308 -118
-805 -7 -448 6 -679 48 -847 17 -67 44 -150 59 -183 34 -70 122 -174 191 -227
95 -71 286 -117 489 -117 203 0 393 46 489 117 65 49 169 174 197 237 12 28
36 106 53 174 42 167 55 397 48 846 -8 494 -25 614 -116 801 -57 116 -118 189
-199 238 -70 42 -183 83 -280 102 -91 17 -304 17 -392 -1z m349 -202 c74 -23
134 -80 176 -166 77 -156 100 -400 92 -972 -10 -666 -59 -856 -245 -946 -65
-31 -228 -39 -305 -14 -235 77 -296 335 -284 1198 7 500 28 646 112 774 70
107 145 142 301 143 69 0 119 -5 153 -17z"/>
<path d="M6351 2865 c-163 -37 -299 -102 -365 -176 -47 -53 -125 -195 -157
-287 -33 -94 -49 -232 -60 -507 -10 -270 -5 -632 12 -817 12 -134 51 -292 94
-383 44 -92 153 -210 233 -253 107 -57 226 -83 407 -89 138 -4 174 -2 265 17
121 25 222 64 278 109 53 42 144 154 176 218 43 86 85 279 97 447 13 179 6
932 -10 1056 -15 116 -35 188 -77 283 -93 213 -195 301 -426 368 -97 28 -369
36 -467 14z m348 -201 c92 -27 168 -113 211 -238 47 -138 55 -247 55 -776 0
-515 -6 -619 -45 -787 -35 -148 -92 -233 -188 -280 -49 -24 -72 -28 -162 -31
-90 -3 -114 -1 -164 18 -71 27 -133 81 -170 149 -34 63 -71 228 -88 391 -17
169 -17 904 0 1060 35 313 106 446 265 496 60 18 222 17 286 -2z"/>
<path d="M3213 2808 c3 -13 156 -560 339 -1215 l332 -1193 216 0 216 0 309
1203 c169 661 310 1208 313 1215 3 9 -35 12 -171 12 -131 0 -176 -3 -179 -12
-3 -7 -112 -491 -243 -1076 -132 -584 -242 -1059 -246 -1055 -3 5 -125 488
-270 1075 l-264 1068 -179 0 -178 0 5 -22z"/>
</g>
</svg>
